<svg width="120" height="110" viewBox="155 95 125 110" fill="none" xmlns="http://www.w3.org/2000/svg">
<path d="M209.626 167.782C191.422 167.21 188.294 146.104 189.005 135.622C183.316 136.193 180.472 141.101 179.761 143.483C182.842 154.203 191.138 176.93 199.671 182.076C210.338 188.508 226.692 179.217 231.669 178.502C236.647 177.787 241.625 150.63 240.202 143.483C239.065 137.766 234.04 135.86 231.669 135.622C231.906 146.58 227.829 168.354 209.626 167.782Z" fill="#678F74"/>
<path d="M192.272 170.59C188.01 171.397 183.602 170.47 180.02 168.012C176.438 165.554 173.974 161.766 173.17 157.482C172.367 153.198 173.289 148.769 175.735 145.168C178.181 141.568 181.95 139.091 186.212 138.284L189.242 154.437L192.272 170.59Z" fill="#678F74"/>
<path d="M211.653 184.243C208.966 187.665 205.036 189.875 200.728 190.385C196.421 190.895 192.088 189.665 188.682 186.964C185.277 184.263 183.079 180.314 182.572 175.984C182.064 171.655 183.288 167.3 185.975 163.878L198.814 174.06L211.653 184.243Z" fill="#678F74"/>
<path d="M237.601 166.294C239.769 170.07 240.357 174.557 239.235 178.767C238.112 182.978 235.371 186.569 231.614 188.748C227.858 190.928 223.394 191.519 219.204 190.391C215.014 189.262 211.442 186.507 209.273 182.732L223.437 174.513L237.601 166.294Z" fill="#678F74"/>
<path d="M235.095 138.1C239.407 138.568 243.358 140.738 246.078 144.134C248.799 147.53 250.065 151.872 249.6 156.207C249.134 160.541 246.975 164.512 243.596 167.246C240.218 169.98 235.897 171.253 231.584 170.785L233.339 154.443L235.095 138.1Z" fill="#678F74"/>
<ellipse cx="209.243" cy="107.393" rx="10.8289" ry="10.1697" fill="#678F74"/>
<path d="M187.583 139.173C187.583 137.003 188.178 134.854 189.335 132.849C190.491 130.844 192.186 129.022 194.323 127.488C196.46 125.953 198.996 124.736 201.788 123.905C204.58 123.075 207.572 122.647 210.594 122.647C213.616 122.647 216.609 123.075 219.4 123.905C222.192 124.736 224.729 125.953 226.866 127.488C229.003 129.022 230.698 130.844 231.854 132.849C233.01 134.854 233.606 137.003 233.606 139.173L210.594 139.173L187.583 139.173Z" fill="#678F74"/>
</svg>
