<svg width="120" height="120" viewBox="145 65 145 145" fill="none" xmlns="http://www.w3.org/2000/svg">
<path d="M218.013 96.6133H204.509C204.228 93.2158 205.185 86.4207 211.261 86.4207C217.338 86.4207 218.294 93.2158 218.013 96.6133Z" fill="#678F74"/>
<path d="M211.483 98.3942C201.307 109.015 188.282 137.48 211.485 166.37C222.17 154.687 235.907 124.735 211.483 98.3942Z" fill="#678F74"/>
<path d="M191.134 150.997C185.223 163.699 162.071 160.921 151.235 157.944C163.057 155.959 174.878 121.226 180.789 112.295C185.518 105.15 194.582 104.026 198.522 104.356C183.745 110.31 198.522 135.119 191.134 150.997Z" fill="#678F74"/>
<path d="M232.511 150.997C238.422 163.699 261.573 160.921 272.41 157.944C260.588 155.959 248.766 121.226 242.855 112.295C238.126 105.15 229.063 104.026 225.122 104.356C239.9 110.31 225.122 135.119 232.511 150.997Z" fill="#678F74"/>
<circle cx="211.826" cy="190.014" r="7.38893" fill="#678F74"/>
<path d="M228.078 167.848C228.078 169.401 227.657 170.938 226.84 172.372C226.023 173.807 224.826 175.11 223.317 176.208C221.807 177.305 220.015 178.176 218.043 178.77C216.071 179.364 213.957 179.67 211.822 179.67C209.688 179.67 207.574 179.364 205.602 178.77C203.63 178.176 201.838 177.305 200.328 176.208C198.819 175.11 197.622 173.807 196.805 172.372C195.988 170.938 195.567 169.401 195.567 167.848L211.822 167.848H228.078Z" fill="#678F74"/>
</svg>
