<svg width="1516" height="2623" viewBox="0 0 1516 2623" fill="none" xmlns="http://www.w3.org/2000/svg">
<mask id="path-1-inside-1_938_907" fill="white">
<path d="M749.84 0C1167.99 0 1515.21 477.84 1516 756.5H1516V2622.5H0V756.5H0.00390625C0.693271 477.84 303.51 0.000789188 749.84 0Z"/>
</mask>
<path d="M749.84 0C1167.99 0 1515.21 477.84 1516 756.5H1516V2622.5H0V756.5H0.00390625C0.693271 477.84 303.51 0.000789188 749.84 0Z" fill="#EDE2C2"/>
<path d="M749.84 0V-6V-6V0ZM1516 756.5L1510 756.517L1510.02 762.5H1516V756.5ZM1516 756.5H1522V750.5H1516V756.5ZM1516 2622.5V2628.5H1522V2622.5H1516ZM0 2622.5H-6V2628.5H0V2622.5ZM0 756.5V750.5H-6V756.5H0ZM0.00390625 756.5V762.5H5.98908L6.00389 756.515L0.00390625 756.5ZM749.84 0V6C956.617 6 1146.46 124.211 1284.98 277.771C1423.58 431.438 1509.61 619.198 1510 756.517L1516 756.5L1522 756.483C1521.6 615.142 1433.62 424.651 1293.89 269.734C1154.05 114.709 961.217 -6 749.84 -6V0ZM1516 756.5V762.5H1516V756.5V750.5H1516V756.5ZM1516 756.5H1510V2622.5H1516H1522V756.5H1516ZM1516 2622.5V2616.5H0V2622.5V2628.5H1516V2622.5ZM0 2622.5H6V756.5H0H-6V2622.5H0ZM0 756.5V762.5H0.00390625V756.5V750.5H0V756.5ZM0.00390625 756.5L6.00389 756.515C6.34416 618.968 81.4477 431.168 212.372 277.646C343.192 124.246 528.942 6.00039 749.84 6V0V-6C524.408 -5.9996 335.584 114.675 203.241 269.859C71.0024 424.923 -5.64698 615.372 -5.99608 756.485L0.00390625 756.5Z" fill="#724E2A" mask="url(#path-1-inside-1_938_907)"/>
</svg>
