<svg width="417" height="475" viewBox="0 0 417 475" fill="none" xmlns="http://www.w3.org/2000/svg">
<path d="M3.00316 3.00316H413.936C186.098 105.393 74.2393 312.527 3.00316 471.997V3.00316Z" fill="#F7D08D" stroke="#724E2A" stroke-width="6" stroke-linejoin="round"/>
<path d="M20.5216 22.0232H330.848C132.993 144.936 52.9088 319.601 20.5216 388.409V22.0232Z" fill="url(#paint0_linear_938_916)" stroke="#724E2A" stroke-width="6" stroke-linejoin="round"/>
<mask id="path-3-inside-1_938_916" fill="white">
<path fill-rule="evenodd" clip-rule="evenodd" d="M102.713 64.0536C106.226 60.7455 111.993 63.2362 111.993 68.0617V100.607H202.172C181.828 116.294 158.136 140.578 143.027 161.671H111.993V194.422C111.993 199.291 106.137 201.763 102.647 198.368L36.6558 134.149C34.4091 131.962 34.4389 128.343 36.7213 126.194L102.713 64.0536Z"/>
</mask>
<path fill-rule="evenodd" clip-rule="evenodd" d="M102.713 64.0536C106.226 60.7455 111.993 63.2362 111.993 68.0617V100.607H202.172C181.828 116.294 158.136 140.578 143.027 161.671H111.993V194.422C111.993 199.291 106.137 201.763 102.647 198.368L36.6558 134.149C34.4091 131.962 34.4389 128.343 36.7213 126.194L102.713 64.0536Z" fill="#F7D08D"/>
<path d="M102.713 64.0536L98.5952 59.6807L98.5951 59.6808L102.713 64.0536ZM111.993 68.0617H117.999V68.0614L111.993 68.0617ZM111.993 100.607H105.987C105.987 103.924 108.676 106.613 111.993 106.613V100.607ZM202.172 100.607L205.84 105.363C207.875 103.793 208.686 101.102 207.857 98.6693C207.028 96.2361 204.742 94.6004 202.172 94.6004V100.607ZM143.027 161.671V167.677C144.963 167.677 146.782 166.743 147.909 165.169L143.027 161.671ZM111.993 161.671V155.665C108.676 155.665 105.987 158.354 105.987 161.671H111.993ZM111.993 194.422L117.999 194.423V194.422H111.993ZM102.647 198.368L98.4583 202.672L98.4583 202.672L102.647 198.368ZM36.6558 134.149L32.4669 138.453L32.4669 138.453L36.6558 134.149ZM36.7213 126.194L32.6037 121.821L32.6037 121.821L36.7213 126.194ZM106.830 68.4265C106.832 68.4252 106.824 68.4324 106.807 68.4442C106.79 68.456 106.766 68.4702 106.737 68.4844C106.676 68.514 106.608 68.5346 106.542 68.5446C106.415 68.5638 106.332 68.5403 106.289 68.5216C106.245 68.5029 106.171 68.4584 106.098 68.3529C106.060 68.2978 106.029 68.2344 106.008 68.1697C105.999 68.1385 105.993 68.1117 105.990 68.0911C105.987 68.0705 105.987 68.0601 105.987 68.062L111.993 68.0617L117.999 68.0614C117.999 57.9713 105.941 52.7641 98.5952 59.6807L102.713 64.0536L106.830 68.4265ZM111.993 68.0617H105.987V100.607H111.993H117.999V68.0617H111.993ZM111.993 100.607V106.613H202.172V100.607V94.6004H111.993V100.607ZM202.172 100.607L198.504 95.8503C177.714 111.882 153.607 136.586 138.144 158.173L143.027 161.671L147.909 165.169C162.664 144.570 185.943 120.706 205.840 105.363L202.172 100.607ZM143.027 161.671V155.665H111.993V161.671V167.677H143.027V161.671ZM111.993 161.671H105.987V194.422H111.993H117.999V161.671H111.993ZM111.993 194.422L105.987 194.422C105.987 194.423 105.987 194.382 106.009 194.315C106.029 194.249 106.061 194.185 106.101 194.129C106.175 194.022 106.250 193.979 106.292 193.961C106.335 193.943 106.418 193.920 106.547 193.941C106.614 193.952 106.682 193.973 106.744 194.004C106.807 194.036 106.837 194.064 106.836 194.063L102.647 198.368L98.4583 202.672C105.754 209.772 117.999 204.603 117.999 194.423L111.993 194.422ZM102.647 198.368L106.836 194.063L40.8447 129.844L36.6558 134.149L32.4669 138.453L98.4583 202.672L102.647 198.368ZM36.6558 134.149L40.8448 129.844C41.0492 130.043 41.0463 130.372 40.839 130.567L36.7213 126.194L32.6037 121.821C27.8316 126.315 27.7689 133.881 32.4669 138.453L36.6558 134.149ZM36.7213 126.194L40.8389 130.567L106.830 68.4263L102.713 64.0536L98.5951 59.6808L32.6037 121.821L36.7213 126.194Z" fill="#724E2A" mask="url(#path-3-inside-1_938_916)"/>
<defs>
<linearGradient id="paint0_linear_938_916" x1="20.5217" y1="203.715" x2="288.303" y2="205.216" gradientUnits="userSpaceOnUse">
<stop stop-color="#96C9D3"/>
<stop offset="1" stop-color="#4D536D"/>
</linearGradient>
</defs>
</svg>
